<?xml version="1.0" encoding="UTF-8"?>
<svg version="1.1" xmlns="http://www.w3.org/2000/svg" width="1254" height="1254">
<path d="M0 0 C413.82 0 827.64 0 1254 0 C1254 413.82 1254 827.64 1254 1254 C840.18 1254 426.36 1254 0 1254 C0 840.18 0 426.36 0 0 Z " fill="#FDFDFD" transform="translate(0,0)"/>
<path d="M0 0 C1.1328241 -0.00095673 2.26564819 -0.00191345 3.43280029 -0.00289917 C5.81962134 -0.00357672 8.20644426 -0.00175222 10.59326172 0.00244141 C14.20935298 0.00777559 17.82531891 0.00249216 21.44140625 -0.00390625 C23.77343777 -0.003245 26.10546921 -0.00196288 28.4375 0 C29.5014801 -0.00202423 30.56546021 -0.00404846 31.66168213 -0.00613403 C42.35304081 0.02655135 52.92692286 0.65664243 63.421875 2.7578125 C64.28022949 2.92603516 65.13858398 3.09425781 66.02294922 3.26757812 C73.58436515 4.78488375 81.11255537 6.45738518 88.62966919 8.17938232 C90.55764733 8.62096484 92.48669673 9.05786193 94.41577148 9.49462891 C101.83750365 11.22750191 108.87546452 13.40091598 115.984375 16.1328125 C117.41898461 16.62056469 118.85605094 17.10123578 120.296875 17.5703125 C121.859375 18.09114583 123.421875 18.61197917 124.984375 19.1328125 C126.01046875 19.46796875 127.0365625 19.803125 128.09375 20.1484375 C137.52552935 23.3492676 146.2054867 27.46079474 154.984375 32.1328125 C155.71736816 32.52130371 156.45036133 32.90979492 157.20556641 33.31005859 C172.7841552 41.62109982 187.21159066 51.07070845 200.984375 62.1328125 C202.02658203 62.96981689 202.02658203 62.96981689 203.08984375 63.82373047 C205.35246729 65.64853833 207.60745826 67.48231161 209.859375 69.3203125 C210.5611084 69.89040039 211.2628418 70.46048828 211.98583984 71.04785156 C216.58753261 74.83645093 220.83776082 78.85341112 224.984375 83.1328125 C226.82626112 85.18551713 226.82626112 85.18551713 228.984375 86.1328125 C231.32120526 85.82494904 233.65403437 85.48646218 235.984375 85.1328125 C247.10977321 84.27029389 255.41060801 84.68092605 264.984375 91.1328125 C266.01304687 91.81730469 266.01304687 91.81730469 267.0625 92.515625 C273.75695088 97.60922893 278.61038738 105.88888675 279.984375 114.1328125 C280.64004434 122.41063793 280.24002745 129.1297201 276.76171875 136.73046875 C275.76670488 139.80551163 275.91841868 141.0687456 276.984375 144.1328125 C278.50791153 146.85643407 280.2356499 149.42468819 281.984375 152.0078125 C282.99267635 153.53397453 283.99915716 155.06134075 285.00390625 156.58984375 C285.50744629 157.35377441 286.01098633 158.11770508 286.52978516 158.90478516 C295.62009563 172.82861418 303.70481273 187.3201334 308.984375 203.1328125 C309.47771467 204.46862452 309.97732587 205.80214389 310.484375 207.1328125 C310.71898437 207.76316406 310.95359375 208.39351562 311.1953125 209.04296875 C311.79029567 210.61879052 312.40269644 212.18805192 313.0234375 213.75390625 C315.29416685 219.6431 316.5710453 224.8295346 316.984375 231.1328125 C318.34755859 231.04580078 318.34755859 231.04580078 319.73828125 230.95703125 C335.13194976 230.40443802 348.98118245 234.77672441 360.484375 245.453125 C365.5639154 250.78330062 369.28354281 256.2821615 371.984375 263.1328125 C372.35392602 264.06943285 372.35392602 264.06943285 372.73094273 265.02497482 C374.83131742 270.75762884 375.42044683 275.77653963 375.38842773 281.85253906 C375.39872261 283.24233223 375.39872261 283.24233223 375.40922546 284.66020203 C375.42740248 287.6981068 375.42366779 290.73549043 375.41796875 293.7734375 C375.42253597 295.90419683 375.42784315 298.0349547 375.43385315 300.16571045 C375.44276726 304.62404374 375.4403817 309.08219775 375.43041992 313.54052734 C375.41895204 319.22382846 375.43911741 324.90650621 375.46833706 330.58972549 C375.48678228 334.98925644 375.48638973 339.38864043 375.48069954 343.78820038 C375.48054724 345.88194399 375.48651535 347.97569815 375.49899101 350.0694046 C375.59287561 368.41198753 373.46485932 384.34595354 359.984375 398.1328125 C346.45036433 409.29024089 331.94813037 412.29346002 314.984375 413.1328125 C314.82582031 413.78765625 314.66726563 414.4425 314.50390625 415.1171875 C312.92433078 421.29585841 310.8876225 427.02766897 308.34375 432.87109375 C307.14912179 435.73751488 306.11193814 438.6215646 305.10400391 441.55737305 C301.06684917 453.10097692 295.08629621 463.57157438 288.984375 474.1328125 C288.50242676 474.96731934 288.02047852 475.80182617 287.52392578 476.66162109 C281.66338444 486.71724707 275.3915208 496.1483738 267.984375 505.1328125 C267.54577148 505.67292969 267.10716797 506.21304687 266.65527344 506.76953125 C260.5198374 514.29519833 253.96755405 521.38687822 247.171875 528.3203125 C246.46667725 529.0515332 245.76147949 529.78275391 245.03491211 530.53613281 C240.16309442 535.42461317 235.27928377 539.55459071 227.984375 539.5703125 C222.29494388 539.32773986 218.46007415 536.72501421 214.609375 532.5703125 C212.20714775 528.96697162 211.78344356 526.0657898 211.671875 521.8203125 C211.63449219 520.89605469 211.59710937 519.97179687 211.55859375 519.01953125 C212.48674565 512.72683167 217.24991885 508.65444345 221.671875 504.4453125 C227.23738732 499.00594277 232.1915514 493.27069139 236.984375 487.1328125 C237.76167969 486.17246094 238.53898438 485.21210937 239.33984375 484.22265625 C246.6621472 475.01448132 252.94142557 465.2189492 258.984375 455.1328125 C259.36335937 454.50181641 259.74234375 453.87082031 260.1328125 453.22070312 C267.22280014 441.21303609 272.08605851 428.14760064 276.984375 415.1328125 C277.29149414 414.3190918 277.59861328 413.50537109 277.91503906 412.66699219 C285.4952861 392.23522832 289.57068861 370.73560668 291.984375 349.1328125 C292.06574707 348.50685684 292.14711914 347.88090118 292.23095703 347.23597717 C292.99900423 341.0315417 293.19224353 334.88461434 293.2578125 328.63671875 C293.27687653 326.99616264 293.27687653 326.99616264 293.29632568 325.32246399 C293.71708223 280.31404045 289.38195706 236.03904864 268.984375 195.1328125 C268.27595459 193.69711914 268.27595459 193.69711914 267.55322266 192.23242188 C262.37652272 181.82240965 257.10675916 171.60401809 250.3125 162.14453125 C248.984375 160.1328125 248.984375 160.1328125 248.984375 158.1328125 C248.37851562 158.16761719 247.77265625 158.20242188 247.1484375 158.23828125 C235.93728894 158.60048759 227.50125846 155.49025468 218.984375 148.1328125 C213.19077359 142.26166767 208.08015286 134.6315755 207.95458984 126.11181641 C208.02885066 123.88847735 208.13061746 121.66745306 208.234375 119.4453125 C208.43519125 113.93219722 208.43519125 113.93219722 206.81640625 108.72265625 C204.70241163 106.52466184 202.48272916 104.88952117 199.984375 103.1328125 C198.70490149 102.13625661 197.43059484 101.13304857 196.16015625 100.125 C192.51636181 97.25480985 188.8199267 94.46414905 185.09472656 91.70068359 C183.223489 90.31046059 181.36472745 88.90533049 179.5078125 87.49609375 C124.33986032 46.2289219 47.84360075 28.10444546 -20.14892578 37.84960938 C-22.77480833 38.25760558 -25.39490206 38.69304386 -28.015625 39.1328125 C-29.8200078 39.41213174 -31.6246954 39.68948936 -33.4296875 39.96484375 C-40.7417743 40.50036992 -40.7417743 40.50036992 -47.015625 43.1328125 C-48.43376176 43.45152235 -49.86196614 43.72567593 -51.29296875 43.98046875 C-71.48303906 47.87956195 -90.56353578 55.21014475 -109.015625 64.1328125 C-109.94101074 64.58027832 -110.86639648 65.02774414 -111.81982422 65.48876953 C-135.4071438 77.05615685 -156.22801766 91.9634942 -176.015625 109.1328125 C-176.93730469 109.92945313 -177.85898437 110.72609375 -178.80859375 111.546875 C-183.28283088 115.48636972 -187.41919268 119.50469759 -191.2578125 124.06640625 C-193.1750984 126.32028234 -195.18624701 128.46774097 -197.203125 130.6328125 C-218.32542812 154.15375004 -235.39727012 183.40903057 -246.015625 213.1328125 C-246.36496094 214.02613281 -246.71429688 214.91945313 -247.07421875 215.83984375 C-252.08169186 228.83589264 -255.28947249 242.50204996 -258.015625 256.1328125 C-258.19867188 256.96554687 -258.38171875 257.79828125 -258.5703125 258.65625 C-261.84099575 273.80202935 -262.33485261 288.70047233 -262.27636719 304.140625 C-262.26566595 307.49497647 -262.27630837 310.84878991 -262.2890625 314.203125 C-262.29762239 326.65833483 -261.77094736 338.80022709 -260.015625 351.1328125 C-259.86432129 352.23141602 -259.71301758 353.33001953 -259.55712891 354.46191406 C-259.14053221 357.3384373 -258.68542556 360.20412656 -258.203125 363.0703125 C-258.03353271 364.07900391 -257.86394043 365.08769531 -257.68920898 366.12695312 C-255.37624173 379.36777698 -251.83946756 392.24455948 -247.53930664 404.97265625 C-246.38682697 408.47329584 -245.77021054 411.44458375 -246.015625 415.1328125 C-245.355625 415.1328125 -244.695625 415.1328125 -244.015625 415.1328125 C-244.04245361 413.98482178 -244.06928223 412.83683105 -244.09692383 411.65405273 C-244.35910542 394.47088196 -243.20437154 377.39826429 -242.04418945 360.26586914 C-241.75860772 356.04688184 -241.48630142 351.82715738 -241.21741581 347.6070776 C-237.65720868 291.99517875 -227.36449847 239.30817576 -194.015625 193.1328125 C-193.28988281 192.11445313 -192.56414062 191.09609375 -191.81640625 190.046875 C-180.25832315 174.2349193 -167.0665802 159.39973112 -151.671875 147.234375 C-149.91621844 145.84534084 -148.18596957 144.42350832 -146.484375 142.96875 C-117.36688034 118.14871691 -79.85308298 102.20486306 -42.703125 94.2578125 C-41.82309814 94.06678955 -40.94307129 93.8757666 -40.03637695 93.67895508 C-23.654247 90.40846196 -6.92782824 89.69285642 9.734375 89.6953125 C10.65759552 89.69391266 11.58081604 89.69251282 12.53201294 89.69107056 C37.87108808 89.72234766 64.55038788 92.60247998 88.35546875 101.78125 C92.12465164 103.18505762 93.33645608 103.62939462 96.984375 102.1328125 C98.77525059 100.91484735 100.5085562 99.63122768 102.25 98.34375 C108.12909821 94.23897422 115.09911565 94.46814637 121.984375 95.1328125 C131.45413148 97.14386294 138.24769026 101.94468824 143.875 109.7578125 C148.73989164 118.12360747 148.62539366 125.77868832 147.984375 135.1328125 C148.53480469 135.38417969 149.08523438 135.63554687 149.65234375 135.89453125 C167.13275573 145.17642505 183.6493583 162.12920322 195.78125 177.37890625 C197.19638491 179.14782489 198.64229928 180.89278707 200.125 182.60546875 C220.99285975 206.88875158 235.62350609 238.37401955 243.984375 269.1328125 C244.30317627 270.28595947 244.30317627 270.28595947 244.62841797 271.46240234 C255.81326771 312.92277483 254.98751544 358.18911012 241.984375 399.1328125 C241.70754883 400.01662598 241.43072266 400.90043945 241.14550781 401.81103516 C222.53382346 460.35232772 222.53382346 460.35232772 201.984375 471.6953125 C194.90289985 474.36779964 185.62713201 474.42093648 178.3515625 472.40234375 C174.13861039 470.44003716 171.05119718 467.62558221 167.984375 464.1328125 C167.283125 463.3696875 166.581875 462.6065625 165.859375 461.8203125 C160.95986835 454.7976863 159.64513311 447.53608381 160.984375 439.1328125 C162.57583476 434.02474003 164.8056751 429.18020047 167.01025391 424.31445312 C170.42915503 416.6574856 173.0267393 409.00398981 175.109375 400.8828125 C175.48642578 399.48095703 175.48642578 399.48095703 175.87109375 398.05078125 C179.12693636 385.52175341 180.33209214 373.24653615 180.234375 360.3203125 C180.22313599 358.34647583 180.22313599 358.34647583 180.21166992 356.33276367 C179.74625715 314.18300691 163.52168787 275.30946115 133.984375 245.1328125 C133.10136719 244.19953125 132.21835937 243.26625 131.30859375 242.3046875 C118.5357431 229.06972214 103.79242458 219.23832862 87.234375 211.3203125 C86.45433105 210.94704834 85.67428711 210.57378418 84.87060547 210.18920898 C79.67805367 207.76869113 74.44415545 205.85425932 68.984375 204.1328125 C67.67656926 203.69554493 66.36925682 203.25679855 65.0625 202.81640625 C56.76105329 200.08942793 48.70162997 198.13290853 39.984375 197.1328125 C39.72011719 197.87402344 39.45585938 198.61523438 39.18359375 199.37890625 C36.17541728 206.28693364 30.71045791 211.01888523 23.984375 214.1328125 C14.89295192 216.33499027 6.14689543 215.92473992 -2.015625 211.1328125 C-8.29747621 206.42413647 -12.35881362 200.84734047 -14.015625 193.1328125 C-14.86608063 184.76113986 -15.11623277 177.12315364 -10.015625 170.1328125 C-8.901875 168.555 -8.901875 168.555 -7.765625 166.9453125 C-2.20900662 161.26240734 3.50587734 158.05549676 11.53125 157.83984375 C21.57048066 157.74824493 26.98004098 159.15369798 34.359375 166.0078125 C37.36844004 169.1584806 39.11163667 171.76912084 39.984375 176.1328125 C40.694729 176.16729492 41.40508301 176.20177734 42.13696289 176.23730469 C50.1911119 176.75249824 57.63993104 178.2939983 65.421875 180.3828125 C66.54658203 180.67027344 67.67128906 180.95773437 68.83007812 181.25390625 C80.51245108 184.32715542 91.45653184 188.44580982 101.984375 194.3828125 C102.8388623 194.85952393 103.69334961 195.33623535 104.57373047 195.82739258 C120.24887756 204.69618692 133.9016682 215.81548854 146.984375 228.1328125 C147.75652344 228.83921875 148.52867187 229.545625 149.32421875 230.2734375 C179.49362026 258.8607185 199.53109499 305.04217378 201.10986328 346.421875 C201.54021502 362.58060979 201.12559328 378.2599029 197.984375 394.1328125 C197.75089355 395.38070557 197.75089355 395.38070557 197.51269531 396.65380859 C194.49647626 412.39413738 189.15838245 427.78479761 181.984375 442.1328125 C181.70680916 445.32481971 181.73472902 447.5399033 182.984375 450.5078125 C185.54263716 452.58640051 187.71447565 452.61420133 190.94921875 452.6640625 C195.21526771 451.55046815 197.15658042 448.00133698 199.28125 444.40234375 C200.10824018 442.92181325 200.92544165 441.43578563 201.734375 439.9453125 C202.17120605 439.14432129 202.60803711 438.34333008 203.05810547 437.51806641 C204.38268456 435.06433792 205.688414 432.60176376 206.984375 430.1328125 C207.35143555 429.43430176 207.71849609 428.73579102 208.09667969 428.01611328 C234.69158063 376.5683902 237.05982894 317.06328005 220.12402344 262.35351562 C210.02825536 231.53485518 192.94327726 203.86054974 170.41210938 180.60742188 C169.02386914 179.1736033 167.6522818 177.72371969 166.28125 176.2734375 C159.8986191 169.66685464 153.05078802 163.86570649 145.67773438 158.40722656 C144.48887165 157.51249424 143.32510744 156.58389904 142.18164062 155.63183594 C140.18858311 153.97468224 140.18858311 153.97468224 136.984375 152.1328125 C134.26686277 152.54479227 134.26686277 152.54479227 131.984375 154.1328125 C123.43110074 158.194506 115.09636219 160.02839988 105.796875 157.0703125 C96.83114346 153.09176913 90.10658575 146.28577554 86.171875 137.3828125 C84.42754044 132.40459927 84.72603628 127.33785932 84.984375 122.1328125 C84.0975 122.0503125 83.210625 121.9678125 82.296875 121.8828125 C78.81386245 121.39215002 75.63576365 120.41749885 72.296875 119.3203125 C66.6421193 117.53288972 60.98445648 116.18082505 55.171875 115.0078125 C54.40335205 114.84949951 53.6348291 114.69118652 52.84301758 114.52807617 C39.5516923 111.92602738 26.45767563 110.74739868 12.921875 110.8203125 C11.85345871 110.82304672 11.85345871 110.82304672 10.76345825 110.82583618 C-2.01541976 110.88043233 -14.43134356 111.86826593 -27.015625 114.1328125 C-28.45760254 114.38224609 -28.45760254 114.38224609 -29.92871094 114.63671875 C-72.43138226 122.14455078 -113.16613488 140.8857322 -144.57421875 170.80859375 C-146.60340884 172.74038271 -148.66338264 174.54569953 -150.828125 176.3203125 C-154.654047 179.58010761 -157.80563629 183.27493616 -161.015625 187.1328125 C-161.70035889 187.93307861 -161.70035889 187.93307861 -162.39892578 188.74951172 C-196.02088498 228.07010807 -216.46124734 278.75639706 -216.33129883 330.68286133 C-216.32814936 333.30007074 -216.35166387 335.91613306 -216.37695312 338.53320312 C-216.52984811 379.83251016 -203.13431286 422.98020543 -180.015625 457.1328125 C-179.37560547 458.09670898 -179.37560547 458.09670898 -178.72265625 459.08007812 C-172.36041998 468.81059066 -172.36041998 468.81059066 -164.703125 477.5078125 C-162.84984414 479.53926205 -161.99742454 480.47396697 -162.07463074 483.26878357 C-162.26165054 484.05076614 -162.44867035 484.83274872 -162.64135742 485.63842773 C-162.84957123 486.5235202 -163.05778503 487.40861267 -163.27230835 488.32052612 C-164.54297293 493.12799638 -165.8922429 497.90367411 -167.31640625 502.66796875 C-167.63465866 503.74549911 -167.95291107 504.82302948 -168.2808075 505.93321228 C-169.29248112 509.35514185 -170.31015997 512.77524989 -171.328125 516.1953125 C-171.99975429 518.4627706 -172.67098153 520.73034784 -173.34179688 522.99804688 C-174.63910742 527.38172567 -175.93855119 531.76476196 -177.23999023 536.1472168 C-179.51320525 543.80478133 -181.76591708 551.46831629 -184.015625 559.1328125 C-184.54283778 560.92581977 -185.07015983 562.71879491 -185.59765625 564.51171875 C-185.80712891 565.22392578 -186.01660156 565.93613281 -186.23242188 566.66992188 C-187.16015625 569.82421875 -188.08789062 572.97851562 -189.015625 576.1328125 C-184.15723676 574.62899181 -179.65256786 572.67777018 -175.05859375 570.52734375 C-174.29071533 570.17120499 -173.52283691 569.81506622 -172.73168945 569.44813538 C-171.08045887 568.68200237 -169.42987388 567.91447668 -167.77987671 567.14569092 C-163.3928794 565.10201055 -159.00081598 563.06926581 -154.609375 561.03515625 C-153.71921188 560.62251526 -152.82904877 560.20987427 -151.91191101 559.784729 C-141.9970553 555.19141176 -132.0585959 550.6501002 -122.09936523 546.15380859 C-121.11420677 545.70902161 -121.11420677 545.70902161 -120.10914612 545.25524902 C-118.83337858 544.67930492 -117.55753253 544.1035347 -116.28160095 543.5279541 C-112.55097941 541.84091356 -108.84192517 540.11400901 -105.14453125 538.35546875 C-104.30059814 537.96053223 -103.45666504 537.5655957 -102.5871582 537.15869141 C-101.10885284 536.46563374 -99.63650873 535.759607 -98.17260742 535.03662109 C-95.35923459 533.73288952 -93.58984512 533.00271575 -90.515625 533.69921875 C-89.690625 534.17230469 -88.865625 534.64539063 -88.015625 535.1328125 C-86.91734375 535.7309375 -85.8190625 536.3290625 -84.6875 536.9453125 C-84.06625244 537.29352051 -83.44500488 537.64172852 -82.80493164 538.00048828 C-29.98510684 567.32867545 32.50135972 572.47429247 90.16235352 556.18896484 C93.55765988 555.1968972 96.90656708 554.16033449 100.2421875 552.98046875 C106.06216963 551.18141444 112.52701281 551.13199925 118.171875 553.5703125 C123.66200836 556.72373621 128.97373184 562.10088302 130.984375 568.1328125 C131.65985626 577.74543048 131.26972175 584.97762336 124.8293457 592.55639648 C120.6614787 596.11758707 115.22961083 597.75251937 110.171875 599.6953125 C108.95371094 600.17564941 107.73554687 600.65598633 106.48046875 601.15087891 C97.74162798 604.55693506 89.02597695 607.63986052 79.984375 610.1328125 C78.48957089 610.56506114 76.99477988 610.99735507 75.5 611.4296875 C61.19201513 615.47080637 46.62926857 617.95227513 31.78515625 618.921875 C29.96394843 618.94655928 29.96394843 618.94655928 28.984375 620.1328125 C26.1013508 620.25959795 23.24373829 620.32116112 20.359375 620.3359375 C19.47344666 620.34286118 18.58751831 620.34978485 17.67474365 620.35691833 C14.77791012 620.37435792 11.88125879 620.3805232 8.984375 620.3828125 C7.51393738 620.38482162 7.51393738 620.38482162 6.01379395 620.38687134 C-19.32531155 620.37933025 -43.31427507 617.0651856 -67.8425293 610.70825195 C-69.84295846 610.19148057 -71.84610749 609.68635072 -73.84960938 609.18164062 C-80.37684509 607.51333837 -86.69397217 605.68538512 -92.88598633 603.00537109 C-95.18745849 602.06240864 -97.49658206 601.36512096 -99.890625 600.6953125 C-107.10962685 598.59258143 -114.01000434 595.72165185 -120.6796875 592.25390625 C-121.2974707 591.93389648 -121.91525391 591.61388672 -122.55175781 591.28417969 C-124.30452448 590.36544326 -126.04709901 589.42733973 -127.7890625 588.48828125 C-132.22819158 586.6234171 -135.39885647 586.57379559 -139.9621582 588.15161133 C-140.98656006 588.62622803 -142.01096191 589.10084473 -143.06640625 589.58984375 C-144.22664307 590.119729 -145.38687988 590.64961426 -146.58227539 591.19555664 C-147.83089325 591.77880577 -149.07950975 592.3620578 -150.328125 592.9453125 C-151.63147956 593.5435464 -152.93544426 594.14045264 -154.23999023 594.73608398 C-156.89683672 595.94970219 -159.5516239 597.16765612 -162.20507812 598.38867188 C-167.63719956 600.88211584 -173.10479301 603.29393413 -178.578125 605.6953125 C-179.56723877 606.13061279 -180.55635254 606.56591309 -181.57543945 607.0144043 C-187.29137715 609.52302246 -193.02109508 611.9977701 -198.76171875 614.44921875 C-199.40992081 614.72615067 -200.05812286 615.00308258 -200.72596741 615.28840637 C-203.89704766 616.64242019 -207.06955313 617.99294036 -210.24438477 619.33813477 C-211.37545654 619.81951904 -212.50652832 620.30090332 -213.671875 620.796875 C-215.18491211 621.43810303 -215.18491211 621.43810303 -216.72851562 622.09228516 C-218.93404517 622.93429694 -218.93404517 622.93429694 -220.015625 624.1328125 C-223.53933592 624.52433594 -225.39178951 624.54323058 -228.390625 622.5703125 C-231.07949027 618.53701459 -230.41505164 615.20586979 -229.54296875 610.6796875 C-227.89365877 603.60839443 -225.64383441 596.73029515 -223.41943359 589.82495117 C-221.16037268 582.74863284 -219.19280357 575.61080583 -217.27954102 568.43432617 C-215.31044422 561.08835509 -213.14876257 553.81235169 -210.84375 546.56469727 C-208.86048539 540.91010779 -208.86048539 540.91010779 -209.015625 535.1328125 C-211.09423693 532.50621014 -213.50122636 530.28202471 -215.953125 528.0078125 C-217.34727169 526.66379975 -218.73790566 525.31613371 -220.125 523.96484375 C-220.79982422 523.30822754 -221.47464844 522.65161133 -222.16992188 521.97509766 C-226.16300881 517.98940533 -229.58689511 513.60165093 -233.015625 509.1328125 C-233.9096168 508.01389169 -234.80418296 506.89542964 -235.69921875 505.77734375 C-250.20694563 487.35390111 -263.94052928 465.51236929 -272.12890625 443.4296875 C-273.11130151 440.88498084 -274.27132328 438.46596007 -275.453125 436.0078125 C-283.015625 419.63805318 -283.015625 419.63805318 -283.015625 412.1328125 C-284.32015625 412.17921875 -285.6246875 412.225625 -286.96875 412.2734375 C-304.34085119 412.70932052 -318.00745606 409.2136634 -331.13671875 397.171875 C-341.23792813 386.20964778 -345.15763427 373.44861068 -345.17675781 358.88964844 C-345.18172272 357.978246 -345.18668762 357.06684357 -345.19180298 356.12782288 C-345.20636118 353.12426995 -345.21321611 350.12076985 -345.21875 347.1171875 C-345.22450678 345.01979573 -345.23026445 342.92240397 -345.23602295 340.82501221 C-345.24651499 336.43037675 -345.25236937 332.03575949 -345.25585938 327.64111328 C-345.26133946 322.0281821 -345.28536491 316.41549405 -345.31383133 310.80263901 C-345.33251577 306.47016715 -345.33766641 302.13775318 -345.33919525 297.80524445 C-345.34220933 295.7369275 -345.35019546 293.66861128 -345.36338043 291.60033417 C-345.38056216 288.6978896 -345.37853119 285.79603039 -345.37207031 282.89355469 C-345.3812851 282.05061356 -345.39049988 281.20767242 -345.3999939 280.33918762 C-345.31536637 268.11540735 -340.2008386 255.88702566 -331.89453125 246.88671875 C-320.5460269 236.29320845 -309.21002348 230.92343138 -293.640625 231.0703125 C-292.39539063 231.07933594 -291.15015625 231.08835937 -289.8671875 231.09765625 C-288.45566406 231.11505859 -288.45566406 231.11505859 -287.015625 231.1328125 C-286.84546875 230.09382812 -286.6753125 229.05484375 -286.5 227.984375 C-285.27110916 220.79916074 -283.95076609 214.12465919 -280.98046875 207.421875 C-279.9687827 205.02168058 -279.26607182 202.64362405 -278.578125 200.1328125 C-277.28840789 195.64683993 -275.41152073 191.72361789 -273.25 187.59765625 C-272.11107918 185.32341879 -271.20436212 183.08016541 -270.328125 180.6953125 C-261.62210792 158.51569755 -247.73870493 137.72757648 -233.015625 119.1328125 C-232.23574219 118.14023437 -231.45585937 117.14765625 -230.65234375 116.125 C-217.00281019 99.10551055 -201.44116704 82.31773312 -184.015625 69.1328125 C-182.86531314 68.2311984 -181.71561639 67.32879919 -180.56640625 66.42578125 C-152.65238364 44.73773343 -121.25448613 27.6970205 -87.703125 16.6328125 C-86.56939453 16.25511719 -85.43566406 15.87742187 -84.26757812 15.48828125 C-80.85445641 14.35640841 -77.43674763 13.24025612 -74.015625 12.1328125 C-72.83347412 11.74899414 -71.65132324 11.36517578 -70.43334961 10.96972656 C-69.28745361 10.60588867 -68.14155762 10.24205078 -66.9609375 9.8671875 C-65.93371582 9.53944336 -64.90649414 9.21169922 -63.84814453 8.87402344 C-60.07252023 7.88602177 -56.89067983 7.82888663 -53.015625 8.1328125 C-53.015625 7.4728125 -53.015625 6.8128125 -53.015625 6.1328125 C-48.62353961 5.43641738 -44.23103234 4.74276239 -39.83813477 4.05151367 C-38.34745946 3.81656766 -36.85689669 3.58090638 -35.36645508 3.34448242 C-33.20944805 3.00245616 -31.05203335 2.66310639 -28.89453125 2.32421875 C-27.6010376 2.11998291 -26.30754395 1.91574707 -24.97485352 1.70532227 C-16.60431645 0.46842937 -8.46736165 -0.01598756 0 0 Z " fill="#20201F" transform="translate(609.015625,308.8671875)"/>
<path d="M0 0 C6.17594601 2.34657156 11.92894624 7.56360759 15.30078125 13.19921875 C18.05223634 19.56581439 17.95024429 26.86643754 15.91796875 33.421875 C12.60121746 40.70335216 7.9951164 45.57623246 0.48828125 48.44921875 C-5.77217282 50.2409671 -11.57714212 50.34275845 -17.82421875 48.51171875 C-23.86696659 45.04273388 -29.72183498 40.6971714 -32.56640625 34.13671875 C-34.25551468 27.29687227 -34.6094484 19.42175096 -32.1640625 12.75 C-25.02172474 1.03179125 -13.02518462 -2.52174978 0 0 Z " fill="#333333" transform="translate(790.19921875,838.42578125)"/>
<path d="M0 0 C6.31525172 3.75701863 10.57621471 8.2252209 12.99609375 15.1875 C14.33652528 23.82463542 13.11556113 31.05127274 7.99609375 38.1875 C3.19474193 43.68807781 -2.41086918 46.56681932 -9.60546875 47.5390625 C-17.52827249 47.96309988 -23.88817516 45.84303331 -29.85546875 40.54296875 C-36.06202907 33.77078594 -37.65361844 27.48203571 -37.4140625 18.41015625 C-36.57675651 11.83132347 -33.43161732 7.24660571 -28.62890625 2.8125 C-19.8523492 -3.96767282 -9.90049367 -5.08260638 0 0 Z " fill="#1D1D1D" transform="translate(706.00390625,628.8125)"/>
<path d="M0 0 C5.19691868 3.01014029 9.78995808 7.4215071 11.8515625 13.19140625 C13.54407423 21.38436127 13.05146347 28.88435323 8.83984375 36.171875 C4.66090307 41.99706503 -0.64956169 45.83519875 -7.70703125 47.328125 C-15.05638823 48.19844359 -20.50915621 47.39858298 -26.70703125 43.328125 C-27.59390625 42.77125 -28.48078125 42.214375 -29.39453125 41.640625 C-34.69600507 36.33915118 -37.76052163 29.62463984 -38.01953125 22.140625 C-37.9330258 15.57702418 -35.52998421 10.43153226 -31.26953125 5.515625 C-30.42390625 4.79375 -29.57828125 4.071875 -28.70703125 3.328125 C-27.88203125 2.60625 -27.05703125 1.884375 -26.20703125 1.140625 C-18.23475321 -4.63927658 -8.68568566 -3.92167683 0 0 Z " fill="#1C1C1C" transform="translate(511.70703125,628.671875)"/>
<path d="M0 0 C6.23868835 4.07609402 9.66919408 9.46356622 12.15234375 16.40625 C13.63650662 24.06453043 11.29153821 29.99164201 7.15234375 36.40625 C2.79214559 41.8270369 -3.98457099 45.78163355 -10.9765625 46.6796875 C-18.75006875 47.00410349 -24.78445449 44.93054289 -30.703125 39.796875 C-36.64992569 33.3948871 -38.42209247 26.63537792 -38.125 18.0078125 C-37.34400735 10.68188149 -33.197335 5.20430817 -27.84765625 0.40625 C-18.93784132 -5.59526685 -9.14502557 -5.20096241 0 0 Z " fill="#1C1C1C" transform="translate(609.84765625,629.59375)"/>
<path d="M0 0 C4.25887738 0.51227063 6.45363629 2.95039216 9.5 5.8125 C10.0146582 6.29372314 10.52931641 6.77494629 11.05957031 7.27075195 C16.83822941 12.71252678 22.4324681 18.3436245 28 24 C27.01 24.33 26.02 24.66 25 25 C24.49138428 24.48614746 23.98276855 23.97229492 23.45874023 23.44287109 C21.12104295 21.08420435 18.77930818 18.729585 16.4375 16.375 C15.63763672 15.56675781 14.83777344 14.75851562 14.01367188 13.92578125 C10.41204928 10.30945816 6.81395556 6.76759614 2.91015625 3.4765625 C1.94980469 2.65929687 0.98945312 1.84203125 0 1 C0 0.67 0 0.34 0 0 Z " fill="#39393A" transform="translate(760,470)"/>
<path d="M0 0 C4.46855163 1.47612829 6.05537049 4.91226309 8.1875 8.8125 C8.54263672 9.42931641 8.89777344 10.04613281 9.26367188 10.68164062 C11.17170214 14.08857891 12.50428798 17.11568941 13 21 C12.34 21 11.68 21 11 21 C9.54090289 18.25040459 8.08285758 15.50025279 6.625 12.75 C6.00625 11.58404297 6.00625 11.58404297 5.375 10.39453125 C4.77558594 9.26337891 4.77558594 9.26337891 4.1640625 8.109375 C3.61419678 7.07248535 3.61419678 7.07248535 3.05322266 6.01464844 C2.01113969 4.02130846 0.99957057 2.01494463 0 0 Z " fill="#2F2F30" transform="translate(764,579)"/>
<path d="M0 0 C0.33 0 0.66 0 1 0 C1 7.26 1 14.52 1 22 C0.34 22 -0.32 22 -1 22 C-1.99 18.04 -2.98 14.08 -4 10 C-3.01 9.34 -2.02 8.68 -1 8 C-0.42251197 6.03638136 -0.42251197 6.03638136 -0.3125 3.875 C-0.209375 2.59625 -0.10625 1.3175 0 0 Z " fill="#D5D5D5" transform="translate(364,702)"/>
<path d="M0 0 C0.66 0.66 1.32 1.32 2 2 C1.60871856 6.06221278 0.0341364 9.58701507 -1.5625 13.3125 C-2.01753906 14.38113281 -2.47257813 15.44976563 -2.94140625 16.55078125 C-3.46541016 17.76314453 -3.46541016 17.76314453 -4 19 C-4.99 19 -5.98 19 -7 19 C-5.62688759 14.53738465 -3.86654427 10.37332163 -1.90234375 6.1484375 C-1.04585062 4.10916815 -0.47331239 2.15674307 0 0 Z " fill="#494949" transform="translate(780,723)"/>
<path d="M0 0 C0.33 0 0.66 0 1 0 C1.24402716 23.12835167 1.24402716 23.12835167 0 28 C-0.99 28.66 -1.98 29.32 -3 30 C-2.86722656 28.75605469 -2.73445312 27.51210938 -2.59765625 26.23046875 C-1.66897433 17.49225655 -0.7477032 8.755998 0 0 Z " fill="#4A4B4A" transform="translate(840,651)"/>
<path d="M0 0 C0.99 0 1.98 0 3 0 C1.9007105 6.31121503 0.41862058 12.06338584 -2 18 C-2.66 17.67 -3.32 17.34 -4 17 C-2.68 11.39 -1.36 5.78 0 0 Z " fill="#393A39" transform="translate(785,706)"/>
<path d="M0 0 C0.99 0.495 0.99 0.495 2 1 C2.4140625 2.890625 2.4140625 2.890625 2.625 5.25 C2.69847656 6.05824219 2.77195312 6.86648438 2.84765625 7.69921875 C3.0092669 10.13995394 3.07888148 12.554674 3 15 C2.01 15.33 1.02 15.66 0 16 C0 10.72 0 5.44 0 0 Z " fill="#3A3A3A" transform="translate(790,662)"/>
<path d="M0 0 C1.32 0 2.64 0 4 0 C4 0.66 4 1.32 4 2 C4.86625 2.37125 4.86625 2.37125 5.75 2.75 C8.3002997 4.16683317 10.01785701 5.87627537 12 8 C11.67 8.99 11.34 9.98 11 11 C6.86378916 7.6189962 3.18683431 4.33409466 0 0 Z " fill="#464647" transform="translate(735,545)"/>
<path d="M0 0 C0.33 0.99 0.66 1.98 1 3 C-0.57382947 4.65492374 -2.15942902 6.29866024 -3.75 7.9375 C-4.63171875 8.85402344 -5.5134375 9.77054687 -6.421875 10.71484375 C-8.80176695 12.82429343 -9.9099375 13.66067071 -13 14 C-8.88380164 9.08064098 -4.59589638 4.47352044 0 0 Z " fill="#2D2D2D" transform="translate(446,466)"/>
<path d="M0 0 C1.77662117 1.07381517 3.54609689 2.159458 5.3125 3.25 C6.29863281 3.85328125 7.28476562 4.4565625 8.30078125 5.078125 C10.82922888 6.87840898 12.326533 8.41840585 14 11 C9.9255567 11 7.88254967 8.90830751 4.8125 6.5 C3.97428711 5.85611328 3.97428711 5.85611328 3.11914062 5.19921875 C1.74114153 4.13921945 0.36990593 3.07043812 -1 2 C-0.67 1.34 -0.34 0.68 0 0 Z " fill="#383938" transform="translate(746,458)"/>
<path d="M0 0 C1.88897236 3.18764086 2.08934118 5.33701169 2 9 C2.2784375 10.1446875 2.2784375 10.1446875 2.5625 11.3125 C3.17195808 15.0563139 2.5713514 18.25447419 2 22 C1.67 22 1.34 22 1 22 C0.63517625 18.89698871 0.28499056 15.79249627 -0.0625 12.6875 C-0.16626953 11.80642578 -0.27003906 10.92535156 -0.37695312 10.01757812 C-0.47041016 9.17001953 -0.56386719 8.32246094 -0.66015625 7.44921875 C-0.79369507 6.27879028 -0.79369507 6.27879028 -0.92993164 5.0847168 C-1 3 -1 3 0 0 Z " fill="#3A3A3A" transform="translate(788,632)"/>
<path d="M0 0 C1.41152344 -0.02126953 1.41152344 -0.02126953 2.8515625 -0.04296875 C5.375 0.1875 5.375 0.1875 8.375 2.1875 C5.18343552 3.25135483 2.79002524 3.35427982 -0.5625 3.375 C-2.12291016 3.39626953 -2.12291016 3.39626953 -3.71484375 3.41796875 C-6.57546613 3.19142282 -8.20170151 2.66483619 -10.625 1.1875 C-7.03614625 0.37185142 -3.67914195 0.02533844 0 0 Z " fill="#4E4E4E" transform="translate(725.625,463.8125)"/>
<path d="M0 0 C0.99 0.33 1.98 0.66 3 1 C2.34 2.32 1.68 3.64 1 5 C0.34 5 -0.32 5 -1 5 C-1.33 5.99 -1.66 6.98 -2 8 C-5.1967 9.37001429 -7.69903842 8.8252404 -11 8 C-11 7.67 -11 7.34 -11 7 C-9.1128125 6.6596875 -9.1128125 6.6596875 -7.1875 6.3125 C-3.82648432 5.49752806 -3.19641677 5.257797 -1 2.375 C-0.67 1.59125 -0.34 0.8075 0 0 Z " fill="#4A4A4A" transform="translate(807,755)"/>
<path d="M0 0 C5.96564796 0.50771472 10.63809899 2.38592128 16 5 C15.34 5.66 14.68 6.32 14 7 C14 6.34 14 5.68 14 5 C12.68 5.33 11.36 5.66 10 6 C9.67 5.01 9.34 4.02 9 3 C8.01 3.33 7.02 3.66 6 4 C6 3.34 6 2.68 6 2 C4.35 2.33 2.7 2.66 1 3 C0.67 2.01 0.34 1.02 0 0 Z " fill="#565657" transform="translate(681,492)"/>
<path d="M0 0 C0.66 0.66 1.32 1.32 2 2 C1.05065487 3.67180274 0.09026687 5.33733936 -0.875 7 C-1.40867187 7.928125 -1.94234375 8.85625 -2.4921875 9.8125 C-2.98976563 10.534375 -3.48734375 11.25625 -4 12 C-4.66 12 -5.32 12 -6 12 C-5.54300722 6.97307937 -3.00758252 3.85103739 0 0 Z " fill="#434343" transform="translate(602,475)"/>
<path d="M0 0 C1.40503535 2.59391142 2.57705808 5.26973914 3.6875 8 C3.95949219 8.66 4.23148438 9.32 4.51171875 10 C5.08433496 12.34543601 4.75352292 13.73437404 4 16 C2.02317658 13.03476487 1.24171007 10.84158175 0.3125 7.4375 C0.04050781 6.46683594 -0.23148438 5.49617187 -0.51171875 4.49609375 C-1 2 -1 2 0 0 Z " fill="#343434" transform="translate(781,609)"/>
<path d="M0 0 C0.66 0.66 1.32 1.32 2 2 C1.67582137 5.80909895 1.14418558 7.78372163 -1 11 C-1.66 11 -2.32 11 -3 11 C-2.32829194 7.1936543 -1.27253436 3.64793184 0 0 Z " fill="#313131" transform="translate(387,553)"/>
<path d="M0 0 C3.45925163 1.2491742 6.14693203 2.67527795 9 5 C8.67 5.99 8.34 6.98 8 8 C5.03 6.02 2.06 4.04 -1 2 C-0.67 1.34 -0.34 0.68 0 0 Z " fill="#434242" transform="translate(714,527)"/>
<path d="M0 0 C4.455 1.98 4.455 1.98 9 4 C9 4.99 9 5.98 9 7 C5.08788267 5.84414715 2.1254959 4.64465038 -1 2 C-0.67 1.34 -0.34 0.68 0 0 Z " fill="#4E4E4E" transform="translate(691,514)"/>
<path d="M0 0 C1.77155654 0.11429397 3.54226229 0.24183037 5.3125 0.375 C6.79169922 0.47941406 6.79169922 0.47941406 8.30078125 0.5859375 C11 1 11 1 14 3 C10.67438135 4.76062164 9.40826005 5.10784228 5.6875 4.125 C4.800625 3.75375 3.91375 3.3825 3 3 C3 2.34 3 1.68 3 1 C2.01 0.67 1.02 0.34 0 0 Z " fill="#5A5B5A" transform="translate(650,485)"/>
<path d="M0 0 C0.33 0.66 0.66 1.32 1 2 C3.02463255 2.65213292 3.02463255 2.65213292 5 3 C4.3125 4.9375 4.3125 4.9375 3 7 C0.375 7.75 0.375 7.75 -2 8 C-1.34 5.36 -0.68 2.72 0 0 Z " fill="#E3E3E4" transform="translate(421,878)"/>
<path d="M0 0 C3.78205128 4.53846154 3.78205128 4.53846154 5.0625 7.25 C5.93497944 9.35994637 5.93497944 9.35994637 9 10 C8.34 10.66 7.68 11.32 7 12 C5.84852339 10.73427767 4.70400686 9.46222094 3.5625 8.1875 C2.92441406 7.47980469 2.28632812 6.77210938 1.62890625 6.04296875 C0 4 0 4 -1 1 C-0.67 0.67 -0.34 0.34 0 0 Z " fill="#373737" transform="translate(598,506)"/>
<path d="M0 0 C3.28788824 3.11016455 5.83735988 6.01618925 8 10 C7.34 10.66 6.68 11.32 6 12 C3.69 8.37 1.38 4.74 -1 1 C-0.67 0.67 -0.34 0.34 0 0 Z " fill="#393939" transform="translate(795,504)"/>
<path d="M0 0 C0 0.99 0 1.98 0 3 C-1.4096347 3.70180531 -2.82807641 4.38593958 -4.25 5.0625 C-5.03890625 5.44535156 -5.8278125 5.82820313 -6.640625 6.22265625 C-9.25993522 7.08564091 -10.44855176 6.93045933 -13 6 C-11.21118264 4.99491199 -9.41885304 3.99607264 -7.625 3 C-6.62726563 2.443125 -5.62953125 1.88625 -4.6015625 1.3125 C-2 0 -2 0 0 0 Z " fill="#2A2A2A" transform="translate(481,343)"/>
<path d="M0 0 C0.66 0.66 1.32 1.32 2 2 C0.73427767 3.15147661 -0.53777906 4.29599314 -1.8125 5.4375 C-2.52019531 6.07558594 -3.22789062 6.71367188 -3.95703125 7.37109375 C-6 9 -6 9 -9 10 C-9 9.34 -9 8.68 -9 8 C-8.34 8 -7.68 8 -7 8 C-6.67 7.34 -6.34 6.68 -6 6 C-5.00376996 4.93477896 -3.97983163 3.89515436 -2.9375 2.875 C-2.38964844 2.33617187 -1.84179688 1.79734375 -1.27734375 1.2421875 C-0.85582031 0.83226562 -0.43429687 0.42234375 0 0 Z " fill="#3D3D3D" transform="translate(644,511)"/>
<path d="M0 0 C0.99 0.495 0.99 0.495 2 1 C2.484375 2.9609375 2.484375 2.9609375 2.75 5.375 C2.84796875 6.16648437 2.9459375 6.95796875 3.046875 7.7734375 C3 10 3 10 1 13 C-0.32229189 10.35541621 -0.09677194 8.32238699 -0.0625 5.375 C-0.05347656 4.37210937 -0.04445313 3.36921875 -0.03515625 2.3359375 C-0.02355469 1.56507813 -0.01195312 0.79421875 0 0 Z " fill="#525252" transform="translate(694,431)"/>
<path d="M0 0 C0.33 0 0.66 0 1 0 C1.33 4.95 1.66 9.9 2 15 C1.34 14.67 0.68 14.34 0 14 C-1.08562787 9.06532787 -0.90896604 4.94881513 0 0 Z " fill="#454545" transform="translate(858,607)"/>
<path d="M0 0 C4.20626034 1.50223584 5.73900021 4.28550034 8 8 C7.67 8.66 7.34 9.32 7 10 C3.66442368 7.0094833 1.84916079 4.06815373 0 0 Z " fill="#363636" transform="translate(764,579)"/>
<path d="M0 0 C-3.65333143 2.63379708 -6.48521602 4.46884894 -11 5 C-11 4.34 -11 3.68 -11 3 C-9.73581754 2.30034557 -8.46334598 1.61565237 -7.1875 0.9375 C-6.47980469 0.55464844 -5.77210938 0.17179688 -5.04296875 -0.22265625 C-3 -1 -3 -1 0 0 Z " fill="#434343" transform="translate(817,776)"/>
<path d="M0 0 C0.66 0.66 1.32 1.32 2 2 C1.61233695 5.58588324 0.41433748 8.69987921 -1 12 C-1.33 12 -1.66 12 -2 12 C-1 3.42857143 -1 3.42857143 0 0 Z " fill="#343534" transform="translate(780,723)"/>
<path d="M0 0 C1.65 0.33 3.3 0.66 5 1 C5 1.66 5 2.32 5 3 C3.35 3 1.7 3 0 3 C-0.66 4.32 -1.32 5.64 -2 7 C-1.125 2.25 -1.125 2.25 0 0 Z " fill="#3D3D3C" transform="translate(649,503)"/>
<path d="M0 0 C4.31606218 2.99481865 4.31606218 2.99481865 6 5 C5.875 8.3125 5.875 8.3125 5 11 C4.67 11 4.34 11 4 11 C3.71125 9.9275 3.4225 8.855 3.125 7.75 C2.27179891 4.90599636 1.4363497 2.56491017 0 0 Z " fill="#262626" transform="translate(441,785)"/>
<path d="M0 0 C0.33 0.99 0.66 1.98 1 3 C1.66 3.33 2.32 3.66 3 4 C2.34 6.31 1.68 8.62 1 11 C0.34 11 -0.32 11 -1 11 C-0.67 7.37 -0.34 3.74 0 0 Z " fill="#3C3D3C" transform="translate(788,690)"/>
<path d="M0 0 C3.34373475 0.55728913 6.03312999 1.35173889 9 3 C9 3.66 9 4.32 9 5 C6.03 4.01 3.06 3.02 0 2 C0 1.34 0 0.68 0 0 Z " fill="#2C2C2B" transform="translate(738,366)"/>
<path d="M0 0 C1.90318884 2.85478326 2.4619099 4.41941308 3.125 7.6875 C3.29257812 8.49574219 3.46015625 9.30398438 3.6328125 10.13671875 C3.75398438 10.75160156 3.87515625 11.36648438 4 12 C2 10.5 2 10.5 0 8 C-0.35800135 5.24128373 -0.18660165 2.79902476 0 0 Z " fill="#494949" transform="translate(357,703)"/>
<path d="M0 0 C2.97 1.98 2.97 1.98 6 4 C5.67 4.99 5.34 5.98 5 7 C2.5 5.1875 2.5 5.1875 0 3 C0 2.01 0 1.02 0 0 Z " fill="#2B2B2A" transform="translate(276,701)"/>
<path d="M0 0 C0.33 0 0.66 0 1 0 C2.10228696 4.40914783 2.07654536 8.48382401 2 13 C1.67 13 1.34 13 1 13 C1 11.02 1 9.04 1 7 C0.34 7 -0.32 7 -1 7 C-0.67 4.69 -0.34 2.38 0 0 Z " fill="#444343" transform="translate(345,637)"/>
<path d="M0 0 C0.99 0.33 1.98 0.66 3 1 C1.35 2.65 -0.3 4.3 -2 6 C-2.99 5.67 -3.98 5.34 -5 5 C-3.35 3.35 -1.7 1.7 0 0 Z " fill="#252625" transform="translate(678,631)"/>
<path d="M0 0 C3.96 1.98 3.96 1.98 8 4 C7.01 4.66 6.02 5.32 5 6 C2.5 4.6875 2.5 4.6875 0 3 C0 2.01 0 1.02 0 0 Z " fill="#3E3D3D" transform="translate(716,507)"/>
<path d="M0 0 C3.79588866 0.54226981 5.47211993 2.20127563 8 5 C5 5 5 5 2.3125 2.5 C1.549375 1.675 0.78625 0.85 0 0 Z " fill="#404040" transform="translate(702,456)"/>
<path d="M0 0 C0.99 0 1.98 0 3 0 C2.67 1.98 2.34 3.96 2 6 C1.01 6.33 0.02 6.66 -1 7 C-0.67 4.69 -0.34 2.38 0 0 Z " fill="#414141" transform="translate(785,706)"/>
<path d="M0 0 C5.75 1.75 5.75 1.75 8 4 C5 5 5 5 2.3125 3.6875 C1.549375 3.130625 0.78625 2.57375 0 2 C0 1.34 0 0.68 0 0 Z " fill="#3E3D3D" transform="translate(704,501)"/>
<path d="M0 0 C3.79588866 0.54226981 5.47211993 2.20127563 8 5 C7.01 5.33 6.02 5.66 5 6 C3.35 4.02 1.7 2.04 0 0 Z " fill="#424242" transform="translate(760,470)"/>
<path d="M0 0 C3.45925163 1.2491742 6.14693203 2.67527795 9 5 C6 6 6 6 3.375 4.75 C1 3 1 3 0 0 Z " fill="#333333" transform="translate(753,336)"/>
</svg>
